<?xml version="1.0" encoding="UTF-8" standalone="no"?>
<!DOCTYPE svg PUBLIC "-//W3C//DTD SVG 1.1//EN"
 "http://www.w3.org/Graphics/SVG/1.1/DTD/svg11.dtd">
<!-- Generated by graphviz version 2.38.0 (20140413.2041)
 -->
<!-- Title: %3 Pages: 1 -->
<svg width="98pt" height="260pt"
 viewBox="0.00 0.00 98.00 260.00" xmlns="http://www.w3.org/2000/svg" xmlns:xlink="http://www.w3.org/1999/xlink">
<g id="graph0" class="graph" transform="scale(1 1) rotate(0) translate(4 256)">
<title>%3</title>
<polygon fill="white" stroke="none" points="-4,4 -4,-256 94,-256 94,4 -4,4"/>
<!-- A -->
<g id="node1" class="node"><title>A</title>
<ellipse fill="none" stroke="black" cx="36" cy="-234" rx="27" ry="18"/>
<text text-anchor="middle" x="36" y="-230.3" font-family="Times New Roman,serif" font-size="14.00">A</text>
</g>
<!-- A&#45;&gt;A -->
<g id="edge1" class="edge"><title>A&#45;&gt;A</title>
<path fill="none" stroke="black" d="M55.895,-246.432C68.688,-249.675 81,-245.531 81,-234 81,-225.622 74.5006,-221.143 66.0395,-220.564"/>
<polygon fill="black" stroke="black" points="65.5019,-217.1 55.895,-221.568 66.191,-224.066 65.5019,-217.1"/>
</g>
<!-- B -->
<g id="node2" class="node"><title>B</title>
<ellipse fill="none" stroke="black" cx="36" cy="-162" rx="27" ry="18"/>
<text text-anchor="middle" x="36" y="-158.3" font-family="Times New Roman,serif" font-size="14.00">B</text>
</g>
<!-- A&#45;&gt;B -->
<g id="edge2" class="edge"><title>A&#45;&gt;B</title>
<path fill="none" stroke="black" d="M30.1601,-216.411C29.2975,-208.507 29.0481,-198.852 29.4119,-189.935"/>
<polygon fill="black" stroke="black" points="32.9033,-190.179 30.1206,-179.956 25.9209,-189.683 32.9033,-190.179"/>
</g>
<!-- D -->
<g id="node4" class="node"><title>D</title>
<ellipse fill="none" stroke="black" cx="63" cy="-18" rx="27" ry="18"/>
<text text-anchor="middle" x="63" y="-14.3" font-family="Times New Roman,serif" font-size="14.00">D</text>
</g>
<!-- A&#45;&gt;D -->
<g id="edge5" class="edge"><title>A&#45;&gt;D</title>
<path fill="none" stroke="black" d="M49.153,-217.865C57.1251,-207.815 66.7422,-193.947 72,-180 88.9907,-134.93 88.8497,-119.522 81,-72 79.5363,-63.1389 76.7834,-53.768 73.8629,-45.4104"/>
<polygon fill="black" stroke="black" points="77.0619,-43.9713 70.2929,-35.8208 70.5018,-46.4136 77.0619,-43.9713"/>
</g>
<!-- B&#45;&gt;A -->
<g id="edge3" class="edge"><title>B&#45;&gt;A</title>
<path fill="none" stroke="black" d="M41.8794,-179.956C42.7139,-187.827 42.9485,-197.374 42.5831,-206.187"/>
<polygon fill="black" stroke="black" points="39.0742,-206.184 41.8399,-216.411 46.0558,-206.691 39.0742,-206.184"/>
</g>
<!-- C -->
<g id="node3" class="node"><title>C</title>
<ellipse fill="none" stroke="black" cx="27" cy="-90" rx="27" ry="18"/>
<text text-anchor="middle" x="27" y="-86.3" font-family="Times New Roman,serif" font-size="14.00">C</text>
</g>
<!-- B&#45;&gt;C -->
<g id="edge4" class="edge"><title>B&#45;&gt;C</title>
<path fill="none" stroke="black" d="M33.8214,-144.055C32.8302,-136.346 31.632,-127.027 30.5183,-118.364"/>
<polygon fill="black" stroke="black" points="33.9678,-117.747 29.2211,-108.275 27.025,-118.64 33.9678,-117.747"/>
</g>
<!-- C&#45;&gt;C -->
<g id="edge6" class="edge"><title>C&#45;&gt;C</title>
<path fill="none" stroke="black" d="M46.895,-102.432C59.688,-105.675 72,-101.531 72,-90 72,-81.6218 65.5006,-77.1433 57.0395,-76.5644"/>
<polygon fill="black" stroke="black" points="56.5019,-73.1004 46.895,-77.5679 57.191,-80.0665 56.5019,-73.1004"/>
</g>
<!-- C&#45;&gt;D -->
<g id="edge7" class="edge"><title>C&#45;&gt;D</title>
<path fill="none" stroke="black" d="M35.3496,-72.7646C39.7115,-64.2831 45.1469,-53.7144 50.0413,-44.1974"/>
<polygon fill="black" stroke="black" points="53.2346,-45.6409 54.6957,-35.1473 47.0096,-42.4395 53.2346,-45.6409"/>
</g>
</g>
</svg>
