<?xml version="1.0" encoding="UTF-8" standalone="no"?>
<!DOCTYPE svg PUBLIC "-//W3C//DTD SVG 1.1//EN"
 "http://www.w3.org/Graphics/SVG/1.1/DTD/svg11.dtd">
<!-- Generated by graphviz version 2.38.0 (20140413.2041)
 -->
<!-- Title: %3 Pages: 1 -->
<svg width="171pt" height="260pt"
 viewBox="0.00 0.00 171.39 260.00" xmlns="http://www.w3.org/2000/svg" xmlns:xlink="http://www.w3.org/1999/xlink">
<g id="graph0" class="graph" transform="scale(1 1) rotate(0) translate(4 256)">
<title>%3</title>
<polygon fill="white" stroke="none" points="-4,4 -4,-256 167.392,-256 167.392,4 -4,4"/>
<!-- Apple -->
<g id="node1" class="node"><title>Apple</title>
<ellipse fill="none" stroke="black" cx="103.446" cy="-234" rx="32.4942" ry="18"/>
<text text-anchor="middle" x="103.446" y="-230.3" font-family="Times New Roman,serif" font-size="14.00">Apple</text>
</g>
<!-- Google -->
<g id="node2" class="node"><title>Google</title>
<ellipse fill="none" stroke="black" cx="103.446" cy="-162" rx="37.8943" ry="18"/>
<text text-anchor="middle" x="103.446" y="-158.3" font-family="Times New Roman,serif" font-size="14.00">Google</text>
</g>
<!-- Apple&#45;&#45;Google -->
<g id="edge1" class="edge"><title>Apple&#45;&#45;Google</title>
<path fill="none" stroke="black" d="M103.446,-215.697C103.446,-204.846 103.446,-190.917 103.446,-180.104"/>
</g>
<!-- Facebook -->
<g id="node3" class="node"><title>Facebook</title>
<ellipse fill="none" stroke="black" cx="47.4458" cy="-90" rx="47.3916" ry="18"/>
<text text-anchor="middle" x="47.4458" y="-86.3" font-family="Times New Roman,serif" font-size="14.00">Facebook</text>
</g>
<!-- Apple&#45;&#45;Facebook -->
<g id="edge2" class="edge"><title>Apple&#45;&#45;Facebook</title>
<path fill="none" stroke="black" d="M86.1047,-218.645C75.6292,-208.907 63.0619,-195.093 56.4458,-180 46.2204,-156.673 45.4027,-126.708 46.1356,-108.184"/>
</g>
<!-- Amazon -->
<g id="node4" class="node"><title>Amazon</title>
<ellipse fill="none" stroke="black" cx="122.446" cy="-18" rx="40.8928" ry="18"/>
<text text-anchor="middle" x="122.446" y="-14.3" font-family="Times New Roman,serif" font-size="14.00">Amazon</text>
</g>
<!-- Apple&#45;&#45;Amazon -->
<g id="edge3" class="edge"><title>Apple&#45;&#45;Amazon</title>
<path fill="none" stroke="black" d="M121.311,-218.859C131.995,-209.206 144.598,-195.407 150.446,-180 169.472,-129.868 145.143,-66.0045 131.105,-36.0098"/>
</g>
<!-- Google&#45;&#45;Facebook -->
<g id="edge4" class="edge"><title>Google&#45;&#45;Facebook</title>
<path fill="none" stroke="black" d="M90.4575,-144.765C81.5398,-133.618 69.7378,-118.865 60.7525,-107.633"/>
</g>
<!-- Google&#45;&#45;Amazon -->
<g id="edge5" class="edge"><title>Google&#45;&#45;Amazon</title>
<path fill="none" stroke="black" d="M105.738,-143.871C109.39,-116.578 116.489,-63.5205 120.146,-36.1893"/>
</g>
<!-- Facebook&#45;&#45;Amazon -->
<g id="edge6" class="edge"><title>Facebook&#45;&#45;Amazon</title>
<path fill="none" stroke="black" d="M64.4645,-73.1159C76.8251,-61.5793 93.4683,-46.0456 105.753,-34.5801"/>
</g>
</g>
</svg>
