<?xml version="1.0" encoding="UTF-8" standalone="no"?>
<!DOCTYPE svg PUBLIC "-//W3C//DTD SVG 1.1//EN"
 "http://www.w3.org/Graphics/SVG/1.1/DTD/svg11.dtd">
<!-- Generated by graphviz version 2.38.0 (20140413.2041)
 -->
<!-- Title: %3 Pages: 1 -->
<svg width="342pt" height="274pt"
 viewBox="0.00 0.00 342.00 274.00" xmlns="http://www.w3.org/2000/svg" xmlns:xlink="http://www.w3.org/1999/xlink">
<g id="graph0" class="graph" transform="scale(1 1) rotate(0) translate(4 270)">
<title>%3</title>
<polygon fill="#c0ffee" stroke="none" points="-4,4 -4,-270 338,-270 338,4 -4,4"/>
<text text-anchor="middle" x="167" y="-10.8" font-family="Times New Roman,serif" font-size="24.00" fill="#990000">taiwan brand</text>
<!-- A -->
<g id="node1" class="node"><title>A</title>
<polygon fill="#eec0ff" stroke="#ffc0ee" points="122.5,-266 63.5,-266 63.5,-230 122.5,-230 122.5,-266"/>
<text text-anchor="middle" x="93" y="-241.8" font-family="Courier,monospace" font-size="24.00" fill="#000000">HTC</text>
</g>
<!-- B -->
<g id="node2" class="node"><title>B</title>
<polygon fill="#eec0ff" stroke="#ffc0ee" points="74,-168 0,-168 0,-132 74,-132 74,-168"/>
<text text-anchor="middle" x="37" y="-143.8" font-family="Courier,monospace" font-size="24.00" fill="#000000">ACER</text>
</g>
<!-- A&#45;&gt;B -->
<g id="edge1" class="edge"><title>A&#45;&gt;B</title>
<path fill="none" stroke="#aaaaaa" stroke-dasharray="1,5" d="M63.3612,-239.02C49.7771,-233.718 34.9564,-225.225 27,-212 20.9007,-201.862 21.9096,-189.142 25.0355,-177.945"/>
<polygon fill="#aaaaaa" stroke="#aaaaaa" points="28.3581,-168.207 29.3876,-179.125 26.7434,-172.939 25.1287,-177.671 25.1287,-177.671 25.1287,-177.671 26.7434,-172.939 20.8698,-176.218 28.3581,-168.207 28.3581,-168.207"/>
<text text-anchor="middle" x="83" y="-192.8" font-family="Times New Roman,serif" font-size="24.00" fill="#66ff66">VR Related</text>
</g>
<!-- C -->
<g id="node3" class="node"><title>C</title>
<polygon fill="#eec0ff" stroke="#ffc0ee" points="187,-168 113,-168 113,-132 187,-132 187,-168"/>
<text text-anchor="middle" x="150" y="-143.8" font-family="Courier,monospace" font-size="24.00" fill="#000000">ASUS</text>
</g>
<!-- A&#45;&gt;C -->
<g id="edge2" class="edge"><title>A&#45;&gt;C</title>
<path fill="none" stroke="#aaaaaa" stroke-dasharray="1,5" d="M122.387,-229.826C128.744,-224.832 134.808,-218.847 139,-212 145.132,-201.985 148.035,-189.424 149.347,-178.308"/>
<polygon fill="#aaaaaa" stroke="#aaaaaa" points="150.172,-168.222 153.842,-178.556 149.765,-173.206 149.357,-178.189 149.357,-178.189 149.357,-178.189 149.765,-173.206 144.872,-177.822 150.172,-168.222 150.172,-168.222"/>
<text text-anchor="middle" x="241" y="-192.8" font-family="Times New Roman,serif" font-size="24.00" fill="#66ff66">mobile marketshare</text>
</g>
<!-- D -->
<g id="node4" class="node"><title>D</title>
<polygon fill="#eec0ff" stroke="#ffc0ee" points="134,-70 60,-70 60,-34 134,-34 134,-70"/>
<text text-anchor="middle" x="97" y="-45.8" font-family="Courier,monospace" font-size="24.00" fill="#000000">GIGA</text>
</g>
<!-- B&#45;&gt;D -->
<g id="edge3" class="edge"><title>B&#45;&gt;D</title>
<path fill="none" stroke="#aaaaaa" stroke-dasharray="1,5" d="M40.0506,-131.875C42.9246,-119.013 48.146,-101.385 57,-88 59.5311,-84.1735 62.5878,-80.5132 65.8705,-77.0988"/>
<polygon fill="#aaaaaa" stroke="#aaaaaa" points="73.3015,-70.048 69.1446,-80.1955 69.6744,-73.4895 66.0473,-76.9311 66.0473,-76.9311 66.0473,-76.9311 69.6744,-73.4895 62.9499,-73.6667 73.3015,-70.048 73.3015,-70.048"/>
<text text-anchor="middle" x="85" y="-94.8" font-family="Times New Roman,serif" font-size="24.00" fill="#66ff66">ODM</text>
</g>
<!-- C&#45;&gt;D -->
<g id="edge4" class="edge"><title>C&#45;&gt;D</title>
<path fill="none" stroke="#aaaaaa" stroke-dasharray="1,5" d="M140.525,-131.837C132.385,-117.094 120.529,-95.6188 111.246,-78.804"/>
<polygon fill="#aaaaaa" stroke="#aaaaaa" points="106.393,-70.0143 115.166,-76.5938 108.81,-74.3915 111.227,-78.7687 111.227,-78.7687 111.227,-78.7687 108.81,-74.3915 107.287,-80.9437 106.393,-70.0143 106.393,-70.0143"/>
<text text-anchor="middle" x="180.5" y="-94.8" font-family="Times New Roman,serif" font-size="24.00" fill="#66ff66">competitor</text>
</g>
</g>
</svg>
