<?xml version="1.0" encoding="UTF-8" standalone="no"?>
<!DOCTYPE svg PUBLIC "-//W3C//DTD SVG 1.1//EN"
 "http://www.w3.org/Graphics/SVG/1.1/DTD/svg11.dtd">
<!-- Generated by graphviz version 2.38.0 (20140413.2041)
 -->
<!-- Title: %3 Pages: 1 -->
<svg width="227pt" height="218pt"
 viewBox="0.00 0.00 227.10 218.00" xmlns="http://www.w3.org/2000/svg" xmlns:xlink="http://www.w3.org/1999/xlink">
<g id="graph0" class="graph" transform="scale(1 1) rotate(0) translate(4 214)">
<title>%3</title>
<polygon fill="white" stroke="none" points="-4,4 -4,-214 223.097,-214 223.097,4 -4,4"/>
<!-- A -->
<g id="node1" class="node"><title>A</title>
<ellipse fill="none" stroke="black" cx="79.0969" cy="-192" rx="29.4969" ry="18"/>
<text text-anchor="middle" x="79.0969" y="-188.3" font-family="Times New Roman,serif" font-size="14.00">HTC</text>
</g>
<!-- B -->
<g id="node2" class="node"><title>B</title>
<ellipse fill="none" stroke="black" cx="35.0969" cy="-105" rx="35.194" ry="18"/>
<text text-anchor="middle" x="35.0969" y="-101.3" font-family="Times New Roman,serif" font-size="14.00">ACER</text>
</g>
<!-- A&#45;&gt;B -->
<g id="edge1" class="edge"><title>A&#45;&gt;B</title>
<path fill="none" stroke="black" d="M58.0727,-179.433C49.6442,-173.6 40.823,-165.69 36.0969,-156 32.6951,-149.026 31.5467,-140.827 31.4929,-133.108"/>
<polygon fill="black" stroke="black" points="34.9925,-133.202 31.9892,-123.042 28.001,-132.857 34.9925,-133.202"/>
<text text-anchor="middle" x="69.0969" y="-144.8" font-family="Times New Roman,serif" font-size="14.00">VR Related</text>
</g>
<!-- C -->
<g id="node3" class="node"><title>C</title>
<ellipse fill="none" stroke="black" cx="123.097" cy="-105" rx="34.394" ry="18"/>
<text text-anchor="middle" x="123.097" y="-101.3" font-family="Times New Roman,serif" font-size="14.00">ASUS</text>
</g>
<!-- A&#45;&gt;C -->
<g id="edge2" class="edge"><title>A&#45;&gt;C</title>
<path fill="none" stroke="black" d="M90.2669,-175.347C94.2502,-169.431 98.6098,-162.545 102.097,-156 106.081,-148.521 109.859,-140.122 113.084,-132.372"/>
<polygon fill="black" stroke="black" points="116.36,-133.607 116.847,-123.023 109.866,-130.993 116.36,-133.607"/>
<text text-anchor="middle" x="164.597" y="-144.8" font-family="Times New Roman,serif" font-size="14.00">mobile marketshare</text>
</g>
<!-- D -->
<g id="node4" class="node"><title>D</title>
<ellipse fill="none" stroke="black" cx="83.0969" cy="-18" rx="33.5952" ry="18"/>
<text text-anchor="middle" x="83.0969" y="-14.3" font-family="Times New Roman,serif" font-size="14.00">GIGA</text>
</g>
<!-- B&#45;&gt;D -->
<g id="edge3" class="edge"><title>B&#45;&gt;D</title>
<path fill="none" stroke="black" d="M44.3518,-87.6111C51.3242,-75.2642 61.0074,-58.1167 68.9491,-44.0534"/>
<polygon fill="black" stroke="black" points="72.0008,-45.7671 73.8704,-35.3385 65.9055,-42.3251 72.0008,-45.7671"/>
<text text-anchor="middle" x="78.5969" y="-57.8" font-family="Times New Roman,serif" font-size="14.00">ODM</text>
</g>
<!-- C&#45;&gt;D -->
<g id="edge4" class="edge"><title>C&#45;&gt;D</title>
<path fill="none" stroke="black" d="M115.194,-87.2067C109.551,-75.2156 101.85,-58.8511 95.4061,-45.1571"/>
<polygon fill="black" stroke="black" points="98.4081,-43.3163 90.9832,-35.7584 92.0743,-46.2969 98.4081,-43.3163"/>
<text text-anchor="middle" x="136.597" y="-57.8" font-family="Times New Roman,serif" font-size="14.00">competitor</text>
</g>
</g>
</svg>
